<svg width="18" height="18" viewBox="0 0 18 18" fill="none" xmlns="http://www.w3.org/2000/svg">
<path d="M13 17H5C2.792 17 1 15.208 1 13V5C1 2.792 2.792 1 5 1H13C15.208 1 17 2.792 17 5V13C17 15.208 15.216 17 13 17Z" stroke="#AAB2BD" stroke-width="1.5" stroke-miterlimit="10"/>
<path d="M8.9998 12.2C10.7671 12.2 12.1998 10.7674 12.1998 9.00005C12.1998 7.23274 10.7671 5.80005 8.9998 5.80005C7.23249 5.80005 5.7998 7.23274 5.7998 9.00005C5.7998 10.7674 7.23249 12.2 8.9998 12.2Z" stroke="#AAB2BD" stroke-width="1.5" stroke-miterlimit="10"/>
<path d="M13.5597 5.16706C14.0188 5.16706 14.3909 4.79491 14.3909 4.33585C14.3909 3.87678 14.0188 3.50464 13.5597 3.50464C13.1006 3.50464 12.7285 3.87678 12.7285 4.33585C12.7285 4.79491 13.1006 5.16706 13.5597 5.16706Z" fill="#AAB2BD"/>
</svg>
