<svg width="18" height="18" viewBox="0 0 18 18" fill="none" xmlns="http://www.w3.org/2000/svg">
<path d="M13 17H5C2.792 17 1 15.208 1 13V5C1 2.792 2.792 1 5 1H13C15.208 1 17 2.792 17 5V13C17 15.208 15.208 17 13 17Z" stroke="#AAB2BD" stroke-width="1.5" stroke-miterlimit="10"/>
<path d="M5.43164 7.35107V13.1271" stroke="#AAB2BD" stroke-width="1.5" stroke-miterlimit="10"/>
<path d="M8.63184 13.1271V9.45507C8.63184 8.29507 9.57584 7.35107 10.7358 7.35107C11.8958 7.35107 12.8398 8.29507 12.8398 9.45507V13.1271" stroke="#AAB2BD" stroke-width="1.5" stroke-miterlimit="10"/>
<path d="M5.4328 6.20886C6.0251 6.20886 6.50525 5.7287 6.50525 5.1364C6.50525 4.54411 6.0251 4.06396 5.4328 4.06396C4.8405 4.06396 4.36035 4.54411 4.36035 5.1364C4.36035 5.7287 4.8405 6.20886 5.4328 6.20886Z" fill="#AAB2BD"/>
</svg>
